<?xml version="1.0" standalone="no"?>
<!DOCTYPE svg PUBLIC "-//W3C//DTD SVG 20010904//EN"
 "http://www.w3.org/TR/2001/REC-SVG-20010904/DTD/svg10.dtd">
<svg version="1.0" xmlns="http://www.w3.org/2000/svg"
 width="500.000000pt" height="500.000000pt" viewBox="0 0 500.000000 500.000000"
 preserveAspectRatio="xMidYMid meet">
<metadata>
Created by potrace 1.11, written by Peter Selinger 2001-2013
</metadata>
<g transform="translate(0.000000,500.000000) scale(0.100000,-0.100000)"
fill="#000000" stroke="none">
<path d="M1280 3258 c-1 -24 0 -119 0 -213 1 -93 1 -182 1 -197 l-1 -28 1075
0 1075 0 0 240 0 240 -1075 0 -1075 0 0 -42z"/>
<path d="M1490 2540 l0 -240 1265 0 1265 0 0 240 0 240 -1265 0 -1265 0 0
-240z"/>
<path d="M1260 2030 l0 -240 1085 0 1085 0 0 240 0 240 -1085 0 -1085 0 0
-240z"/>
</g>
</svg>
